screens;

 
http://imgcum.com/img-5086efe1690f1.html

Video
ID                                       : 2
Format                                   : AVC
Format/Info                              : Advanced Video Codec
Format profile                           : High@L4.0
Format settings, CABAC                   : Yes
Format settings, ReFrames                : 2 frames
Muxing mode                              : Container profile=High@3.1
Codec ID                                 : avc1
Codec ID/Info                            : Advanced Video Coding
Duration                                 : 33mn 10s
Bit rate mode                            : Variable
Bit rate                                 : 4 690 Kbps
Maximum bit rate                         : 16.0 Mbps
Width                                    : 1 280 pixels
Height                                   : 720 pixels
Display aspect ratio                     : 16:9
Frame rate mode                          : Constant
Frame rate                               : 29.970 fps
Color space                              : YUV
Chroma subsampling                       : 4:2:0
Bit depth                                : 8 bits
Scan type                                : Progressive
Bits/(Pixel*Frame)                       : 0.170
Stream size                              : 1.09 GiB (97%)
Language                                 : English
Encoded date                             : UTC 2012-10-18 21:41:15
Tagged date                              : UTC 2012-10-18 21:41:15

Audio
ID                                       : 1
Format                                   : AAC
Format/Info                              : Advanced Audio Codec
Format profile                           : LC
Codec ID                                 : 40
Duration                                 : 33mn 10s
Bit rate mode                            : Constant
Bit rate                                 : 128 Kbps
Channel(s)                               : 2 channels
Channel positions                        : Front: L R
Sampling rate                            : 48.0 KHz
Compression mode                         : Lossy
Stream size                              : 30.4 MiB (3%)
Language                                 : English
Encoded date                             : UTC 2012-10-18 21:41:15
Tagged date                              : UTC 2012-10-18 21:41:15